# Blender v2.81 (sub 16) OBJ File: ''
# www.blender.org
mtllib cone2.mtl
o Cone
v -0.121212 0.000000 -0.250000
v -0.121212 -0.048773 -0.245196
v -0.121212 -0.095671 -0.230970
v -0.121212 -0.138893 -0.207867
v -0.121212 -0.176777 -0.176777
v -0.121212 -0.207867 -0.138892
v -0.121212 -0.230970 -0.095671
v -0.121212 -0.245196 -0.048773
v -0.121212 -0.250000 0.000000
v -0.121212 -0.245196 0.048773
v -0.121212 -0.230970 0.095671
v -0.121212 -0.207867 0.138893
v -0.121212 -0.176777 0.176777
v -0.121212 -0.138893 0.207867
v -0.121212 -0.095671 0.230970
v -0.121212 -0.048772 0.245196
v -0.121212 0.000000 0.250000
v -0.121212 0.048773 0.245196
v -0.121212 0.095671 0.230970
v -0.121212 0.138893 0.207867
v -0.121212 0.176777 0.176777
v -0.121212 0.207868 0.138892
v -0.121212 0.230970 0.095671
v 3.878788 -0.000000 0.000000
v -0.121212 0.245196 0.048772
v -0.121212 0.250000 -0.000000
v -0.121212 0.245196 -0.048773
v -0.121212 0.230970 -0.095671
v -0.121212 0.207867 -0.138893
v -0.121212 0.176776 -0.176777
v -0.121212 0.138892 -0.207868
v -0.121212 0.095671 -0.230970
v -0.121212 0.048772 -0.245196
vt 0.250000 0.490000
vt 0.250000 0.250000
vt 0.296822 0.485388
vt 0.341844 0.471731
vt 0.383337 0.449553
vt 0.419706 0.419706
vt 0.449553 0.383337
vt 0.471731 0.341844
vt 0.485388 0.296822
vt 0.490000 0.250000
vt 0.485388 0.203178
vt 0.471731 0.158156
vt 0.449553 0.116663
vt 0.419706 0.080294
vt 0.383337 0.050447
vt 0.341844 0.028269
vt 0.296822 0.014612
vt 0.250000 0.010000
vt 0.203178 0.014612
vt 0.158156 0.028269
vt 0.116663 0.050447
vt 0.080294 0.080294
vt 0.050447 0.116663
vt 0.028269 0.158156
vt 0.014611 0.203179
vt 0.010000 0.250000
vt 0.014612 0.296822
vt 0.028269 0.341844
vt 0.050447 0.383337
vt 0.080295 0.419706
vt 0.116663 0.449553
vt 0.158156 0.471731
vt 0.203179 0.485389
vt 0.985388 0.296822
vt 0.796822 0.014612
vt 0.514611 0.203179
vt 0.703179 0.485389
vt 0.750000 0.490000
vt 0.796822 0.485388
vt 0.841844 0.471731
vt 0.883337 0.449553
vt 0.919706 0.419706
vt 0.949553 0.383337
vt 0.971731 0.341844
vt 0.990000 0.250000
vt 0.985388 0.203178
vt 0.971731 0.158156
vt 0.949553 0.116663
vt 0.919706 0.080294
vt 0.883337 0.050447
vt 0.841844 0.028269
vt 0.750000 0.010000
vt 0.703178 0.014612
vt 0.658156 0.028269
vt 0.616663 0.050447
vt 0.580294 0.080294
vt 0.550447 0.116663
vt 0.528269 0.158156
vt 0.510000 0.250000
vt 0.514612 0.296822
vt 0.528269 0.341844
vt 0.550447 0.383337
vt 0.580295 0.419706
vt 0.616663 0.449553
vt 0.658156 0.471731
vn 0.0621 -0.0978 -0.9933
vn 0.0621 -0.2897 -0.9551
vn 0.0621 -0.4705 -0.8802
vn 0.0621 -0.6332 -0.7715
vn 0.0621 -0.7715 -0.6332
vn 0.0621 -0.8802 -0.4705
vn 0.0621 -0.9551 -0.2897
vn 0.0621 -0.9933 -0.0978
vn 0.0621 -0.9933 0.0978
vn 0.0621 -0.9551 0.2897
vn 0.0621 -0.8802 0.4705
vn 0.0621 -0.7715 0.6332
vn 0.0621 -0.6332 0.7715
vn 0.0621 -0.4705 0.8802
vn 0.0621 -0.2897 0.9551
vn 0.0621 -0.0978 0.9933
vn 0.0621 0.0978 0.9933
vn 0.0621 0.2897 0.9551
vn 0.0621 0.4705 0.8802
vn 0.0621 0.6332 0.7715
vn 0.0621 0.7715 0.6332
vn 0.0621 0.8802 0.4705
vn 0.0621 0.9551 0.2897
vn 0.0621 0.9933 0.0978
vn 0.0621 0.9933 -0.0978
vn 0.0621 0.9551 -0.2897
vn 0.0621 0.8802 -0.4705
vn 0.0621 0.7715 -0.6332
vn 0.0621 0.6332 -0.7715
vn 0.0621 0.4705 -0.8802
vn 0.0621 0.2897 -0.9551
vn 0.0621 0.0978 -0.9933
vn -1.0000 -0.0000 0.0000
usemtl None
s off
f 1/1/1 24/2/1 2/3/1
f 2/3/2 24/2/2 3/4/2
f 3/4/3 24/2/3 4/5/3
f 4/5/4 24/2/4 5/6/4
f 5/6/5 24/2/5 6/7/5
f 6/7/6 24/2/6 7/8/6
f 7/8/7 24/2/7 8/9/7
f 8/9/8 24/2/8 9/10/8
f 9/10/9 24/2/9 10/11/9
f 10/11/10 24/2/10 11/12/10
f 11/12/11 24/2/11 12/13/11
f 12/13/12 24/2/12 13/14/12
f 13/14/13 24/2/13 14/15/13
f 14/15/14 24/2/14 15/16/14
f 15/16/15 24/2/15 16/17/15
f 16/17/16 24/2/16 17/18/16
f 17/18/17 24/2/17 18/19/17
f 18/19/18 24/2/18 19/20/18
f 19/20/19 24/2/19 20/21/19
f 20/21/20 24/2/20 21/22/20
f 21/22/21 24/2/21 22/23/21
f 22/23/22 24/2/22 23/24/22
f 23/24/23 24/2/23 25/25/23
f 25/25/24 24/2/24 26/26/24
f 26/26/25 24/2/25 27/27/25
f 27/27/26 24/2/26 28/28/26
f 28/28/27 24/2/27 29/29/27
f 29/29/28 24/2/28 30/30/28
f 30/30/29 24/2/29 31/31/29
f 31/31/30 24/2/30 32/32/30
f 32/32/31 24/2/31 33/33/31
f 33/33/32 24/2/32 1/1/32
f 8/34/33 16/35/33 25/36/33
f 33/37/33 1/38/33 2/39/33
f 2/39/33 3/40/33 4/41/33
f 4/41/33 5/42/33 6/43/33
f 6/43/33 7/44/33 4/41/33
f 7/44/33 8/34/33 4/41/33
f 8/34/33 9/45/33 10/46/33
f 10/46/33 11/47/33 8/34/33
f 11/47/33 12/48/33 8/34/33
f 12/48/33 13/49/33 16/35/33
f 13/49/33 14/50/33 16/35/33
f 14/50/33 15/51/33 16/35/33
f 16/35/33 17/52/33 18/53/33
f 18/53/33 19/54/33 20/55/33
f 20/55/33 21/56/33 22/57/33
f 22/57/33 23/58/33 25/36/33
f 25/36/33 26/59/33 27/60/33
f 27/60/33 28/61/33 29/62/33
f 29/62/33 30/63/33 33/37/33
f 30/63/33 31/64/33 33/37/33
f 31/64/33 32/65/33 33/37/33
f 33/37/33 2/39/33 4/41/33
f 16/35/33 18/53/33 25/36/33
f 18/53/33 20/55/33 25/36/33
f 20/55/33 22/57/33 25/36/33
f 25/36/33 27/60/33 33/37/33
f 27/60/33 29/62/33 33/37/33
f 33/37/33 4/41/33 8/34/33
f 8/34/33 12/48/33 16/35/33
f 33/37/33 8/34/33 25/36/33
