# Blender v2.80 (sub 75) OBJ File: 'upperArm.blend'
# www.blender.org
o Low_Poly_Characte.000_Mesh.001
v 0.379372 -0.193956 -0.350100
v 0.315439 -0.281065 -0.350125
v 0.249790 -0.306306 -0.294083
v 0.182586 -0.129258 0.026837
v 0.114762 -0.172123 -0.060347
v 0.094277 -0.170631 -0.217716
v 0.284653 -0.057549 -0.006783
v 0.316774 -0.003060 -0.129122
v 0.148655 -0.104178 -0.343291
v 0.231026 -0.033526 -0.371747
v 0.295869 0.003059 -0.284706
v 0.401221 -0.155870 -0.234994
v 0.412310 -0.162767 -0.128028
v 0.359876 -0.217324 -0.065935
v 0.294932 -0.264632 -0.067120
v 0.242775 -0.290623 -0.141812
v 0.201055 -0.256846 -0.274015
v 0.241495 -0.192067 -0.339348
v 0.333015 -0.145075 -0.331191
v 0.001520 0.190191 -0.333408
v -0.042984 0.054631 -0.276377
v -0.061145 0.001182 -0.102293
v -0.055425 0.054620 0.035392
v -0.024493 0.158512 0.092423
v 0.044374 0.339612 0.035392
v 0.095830 0.328494 -0.102293
v 0.056393 0.326448 -0.261692
v -0.046383 0.439334 -0.272232
v 0.009169 0.497435 -0.118531
v -0.046383 0.439334 0.035169
v -0.104954 0.234457 0.098834
v -0.092517 0.086313 0.035169
v -0.089962 0.005633 -0.118531
v -0.092517 0.086313 -0.272232
v -0.104954 0.234457 -0.335897
v -0.185576 0.242756 -0.369148
v -0.236157 0.470755 -0.318782
v -0.204831 0.527034 -0.126344
v -0.233659 0.473856 0.055480
v -0.150862 0.063575 -0.330944
v -0.110026 -0.025763 -0.108057
v -0.137683 0.058565 0.132084
v -0.201754 -0.033801 0.144989
v -0.235371 -0.205381 0.227161
v -0.161181 0.237253 0.140906
v 0.177948 0.242013 -0.100926
v -0.007321 -0.053024 -0.022327
v 0.153916 0.160630 0.024268
v 0.090786 0.167161 -0.341699
v 0.015556 0.044643 -0.309180
v 0.057820 0.029290 0.062407
v -0.030112 -0.060673 -0.179898
v 0.153875 0.240210 -0.256845
v -0.188578 -2.007573 -0.188216
vt 0.000000 0.000000
vt 1.000000 0.000000
vt 1.000000 1.000000
vt 0.000000 0.000000
vt 1.000000 0.000000
vt 1.000000 1.000000
vt 0.000000 0.000000
vt 1.000000 1.000000
vt 0.000000 1.000000
vt 1.000000 1.000000
vt 0.000000 1.000000
vt 0.000000 0.000000
vt 0.000000 1.000000
vt 0.000000 0.000000
vt 1.000000 1.000000
vt 0.000000 1.000000
vt 0.000000 0.000000
vt 1.000000 1.000000
vt 0.000000 1.000000
vt 0.000000 0.000000
vt 1.000000 1.000000
vt 0.000000 1.000000
vt 0.000000 0.000000
vt 1.000000 1.000000
vt 0.000000 1.000000
vt 0.000000 0.000000
vt 1.000000 1.000000
vt 0.000000 1.000000
vt 0.000000 0.000000
vt 1.000000 1.000000
vt 0.000000 1.000000
vt 0.000000 0.000000
vt 1.000000 1.000000
vt 0.000000 1.000000
vt 0.000000 0.000000
vt 1.000000 1.000000
vt 0.000000 1.000000
vt 0.000000 0.000000
vt 1.000000 1.000000
vt 0.000000 1.000000
vt 1.000000 0.000000
vt 0.000000 1.000000
vt 0.000000 0.000000
vt 0.000000 0.000000
vt 1.000000 1.000000
vt 0.000000 1.000000
vt 0.000000 0.000000
vt 1.000000 1.000000
vt 0.000000 1.000000
vt 1.000000 0.000000
vt 0.000000 1.000000
vt 0.000000 0.000000
vt 1.000000 0.000000
vt 0.000000 1.000000
vt 0.000000 0.000000
vt 0.000000 0.000000
vt 1.000000 1.000000
vt 0.000000 1.000000
vt 0.000000 1.000000
vt 0.000000 1.000000
vt 1.000000 1.000000
vt 0.000000 1.000000
vt 1.000000 1.000000
vt 0.000000 1.000000
vt 1.000000 1.000000
vt 0.000000 1.000000
vt 1.000000 0.000000
vt 0.000000 1.000000
vt 1.000000 1.000000
vt 0.000000 1.000000
vt 1.000000 1.000000
vt 0.000000 1.000000
vt 0.000000 0.000000
vt 1.000000 1.000000
vt 0.000000 0.000000
vt 1.000000 1.000000
vt 0.000000 1.000000
vt 0.000000 0.000000
vt 1.000000 1.000000
vt 0.000000 0.000000
vt 1.000000 1.000000
vt 0.000000 1.000000
vt 0.000000 0.000000
vt 1.000000 1.000000
vt 0.000000 0.000000
vt 1.000000 1.000000
vt 0.000000 1.000000
vt 0.000000 0.000000
vt 1.000000 1.000000
vt 0.000000 0.000000
vt 1.000000 1.000000
vt 0.000000 1.000000
vt 0.000000 0.000000
vt 1.000000 1.000000
vt 0.000000 0.000000
vt 1.000000 1.000000
vt 0.000000 1.000000
vt 0.000000 0.000000
vt 1.000000 1.000000
vt 1.000000 0.000000
vt 0.000000 1.000000
vt 0.000000 0.000000
vt 0.000000 0.000000
vt 1.000000 1.000000
vt 1.000000 0.000000
vt 0.000000 1.000000
vt 0.000000 0.000000
vt 0.000000 0.000000
vt 1.000000 1.000000
vt 1.000000 0.000000
vt 0.000000 1.000000
vt 0.000000 0.000000
vt 1.000000 0.000000
vt 1.000000 0.000000
vt 1.000000 0.000000
vt 1.000000 0.000000
vt 1.000000 0.000000
vt 1.000000 0.000000
vt 1.000000 0.000000
vt 1.000000 0.000000
vt 1.000000 0.000000
vt 1.000000 0.000000
vt 1.000000 1.000000
vt 1.000000 0.000000
vt 1.000000 0.000000
vt 1.000000 1.000000
vt 1.000000 1.000000
vt 1.000000 0.000000
vt 1.000000 1.000000
vt 1.000000 1.000000
vt 1.000000 1.000000
vt 1.000000 0.000000
vt 1.000000 0.000000
vt 1.000000 0.000000
vt 1.000000 0.000000
vt 1.000000 0.000000
vt 1.000000 0.000000
vt 1.000000 0.000000
vt 1.000000 0.000000
vt 1.000000 0.000000
vt 1.000000 0.000000
vt 1.000000 0.000000
vt 1.000000 1.000000
vt 1.000000 0.000000
vt 1.000000 1.000000
vt 1.000000 0.000000
vt 1.000000 1.000000
vn -0.6860 -0.6235 -0.3751
vn -0.6855 -0.5222 -0.5073
vn -0.5627 -0.7892 0.2458
vn 0.4491 0.3167 -0.8355
vn 0.8155 0.5237 -0.2463
vn 0.1453 0.4738 -0.8685
vn -0.2396 -0.2549 -0.9368
vn -0.3159 -0.0988 -0.9436
vn -0.6963 -0.6714 -0.2537
vn -0.5368 -0.7496 0.3871
vn -0.0217 -0.4065 0.9134
vn 0.5290 -0.1309 0.8384
vn 0.6212 0.1808 0.7624
vn -0.0721 -0.6309 0.7725
vn -0.4565 -0.3213 -0.8297
vn 0.8624 0.3873 0.3259
vn 0.8525 0.4989 0.1561
vn 0.7688 0.4881 -0.4131
vn 0.2369 0.1639 -0.9576
vn 0.3020 0.0160 -0.9532
vn 0.5600 0.5246 -0.6412
vn -0.0581 0.0642 -0.9962
vn 0.2251 -0.6148 -0.7559
vn -0.5165 -0.5099 -0.6879
vn 0.5519 0.8339 -0.0000
vn 0.3994 0.6106 -0.6838
vn 0.5799 0.4102 0.7038
vn 0.7975 0.6021 0.0372
vn 0.4429 -0.8934 -0.0749
vn -0.6537 -0.7448 0.1340
vn 0.3567 -0.6045 0.7122
vn 0.0335 -0.1235 0.9918
vn 0.4054 0.1343 0.9042
vn 0.3395 0.6224 0.7052
vn -0.4989 -0.5633 0.6586
vn 0.8725 -0.1949 0.4480
vn 0.8368 -0.5471 0.0164
vn 0.6681 -0.3746 -0.6428
vn 0.3544 0.0764 -0.9320
vn 0.2801 0.6628 -0.6944
vn 0.1870 0.9823 -0.0103
vn 0.2478 0.7134 0.6554
vn 0.5875 0.2537 0.7684
vn -0.6331 -0.6241 0.4579
vn -0.7943 -0.5654 -0.2222
vn 0.6120 0.2705 0.7432
vn -0.0182 -0.2602 0.9654
vn -0.4564 -0.2994 -0.8379
vn 0.8170 0.5597 0.1386
vn 0.6852 0.5743 -0.4480
vn 0.1575 0.2481 -0.9558
s 1
f 17/1/1 3/2/2 16/3/3
f 19/4/4 12/5/5 1/6/6
f 18/7/7 3/8/2 17/9/1
f 19/4/4 2/10/8 18/11/7
f 6/12/9 16/3/3 5/13/10
f 4/14/11 14/15/12 7/16/13
f 5/17/10 15/18/14 4/19/11
f 9/20/15 17/21/1 6/22/9
f 7/23/13 13/24/16 8/25/17
f 8/26/17 12/27/5 11/28/18
f 10/29/19 18/30/7 9/31/15
f 11/32/18 19/33/4 10/34/19
f 35/35/20 27/36/21 20/37/22
f 34/38/23 20/39/22 21/40/24
f 29/41/25 27/42/21 28/43/26
f 29/44/25 25/45/27 26/46/28
f 33/47/29 21/48/24 22/49/30
f 32/50/31 24/51/32 31/52/33
f 31/53/33 25/54/27 30/55/34
f 32/56/31 22/57/30 23/58/35
f 31/53/33 42/59/36 32/56/31
f 32/50/31 41/60/37 33/47/29
f 34/38/23 41/61/37 40/62/38
f 35/35/20 40/63/38 36/64/39
f 28/43/26 36/65/39 37/66/40
f 28/67/26 38/68/41 29/44/25
f 30/55/34 38/69/41 39/70/42
f 31/52/33 39/71/42 45/72/43
f 22/73/30 47/74/44 23/58/35
f 52/75/45 5/76/10 47/77/44
f 24/78/32 48/79/46 25/54/27
f 51/80/47 7/81/13 48/82/46
f 23/83/35 51/84/47 24/51/32
f 47/85/44 4/86/11 51/87/47
f 21/88/24 52/89/45 22/49/30
f 50/90/48 6/91/9 52/92/45
f 25/93/27 46/94/49 26/46/28
f 48/95/46 8/96/17 46/97/49
f 26/98/28 53/99/50 27/42/21
f 8/100/17 53/101/50 46/102/49
f 20/103/22 50/104/48 21/40/24
f 10/105/19 50/106/48 49/107/51
f 27/108/21 49/109/51 20/37/22
f 11/110/18 49/111/51 53/112/50
f 18/7/7 2/113/8 3/8/2
f 19/4/4 1/114/6 2/10/8
f 6/12/9 17/115/1 16/3/3
f 4/14/11 15/116/14 14/15/12
f 5/17/10 16/117/3 15/18/14
f 9/20/15 18/118/7 17/21/1
f 7/23/13 14/119/12 13/24/16
f 8/26/17 13/120/16 12/27/5
f 10/29/19 19/121/4 18/30/7
f 11/32/18 12/5/5 19/33/4
f 35/35/20 28/67/26 27/36/21
f 34/38/23 35/122/20 20/39/22
f 29/41/25 26/123/28 27/42/21
f 29/44/25 30/124/34 25/45/27
f 33/47/29 34/125/23 21/48/24
f 32/50/31 23/126/35 24/51/32
f 31/53/33 24/127/32 25/54/27
f 32/56/31 33/128/29 22/57/30
f 31/53/33 45/129/43 42/59/36
f 32/50/31 42/130/36 41/60/37
f 34/38/23 33/128/29 41/61/37
f 35/35/20 34/125/23 40/63/38
f 28/43/26 35/122/20 36/65/39
f 28/67/26 37/131/40 38/68/41
f 30/55/34 29/41/25 38/69/41
f 31/52/33 30/124/34 39/71/42
f 22/73/30 52/132/45 47/74/44
f 52/75/45 6/133/9 5/76/10
f 24/78/32 51/134/47 48/79/46
f 51/80/47 4/135/11 7/81/13
f 23/83/35 47/136/44 51/84/47
f 47/85/44 5/137/10 4/86/11
f 21/88/24 50/138/48 52/89/45
f 50/90/48 9/139/15 6/91/9
f 25/93/27 48/140/46 46/94/49
f 48/95/46 7/141/13 8/96/17
f 26/98/28 46/142/49 53/99/50
f 8/100/17 11/143/18 53/101/50
f 20/103/22 49/144/51 50/104/48
f 10/105/19 9/145/15 50/106/48
f 27/108/21 53/146/50 49/109/51
f 11/110/18 10/147/19 49/111/51
l 43 44
